<?xml version="1.0" standalone="no"?>
<!DOCTYPE svg PUBLIC "-//W3C//DTD SVG 20010904//EN"
 "http://www.w3.org/TR/2001/REC-SVG-20010904/DTD/svg10.dtd">
<svg version="1.0" xmlns="http://www.w3.org/2000/svg"
 width="256.000000pt" height="256.000000pt" viewBox="0 0 256.000000 256.000000"
 preserveAspectRatio="xMidYMid meet">

<g transform="translate(0.000000,256.000000) scale(0.100000,-0.100000)"
fill="#000000" stroke="none">
<path d="M679 2166 c-134 -37 -255 -142 -318 -276 l-36 -75 -3 -414 c-3 -467
-12 -424 73 -351 23 19 56 46 75 60 54 40 245 192 435 345 34 28 77 61 95 75
19 14 46 35 61 48 33 27 35 27 151 2 169 -38 202 -49 354 -124 145 -71 153
-77 209 -144 57 -69 60 -72 157 -106 54 -20 148 -65 209 -100 l109 -65 0 362
c0 393 -3 420 -56 518 -66 122 -196 221 -322 248 -79 16 -1132 13 -1193 -3z"/>
<path d="M892 1242 c-64 -67 -121 -122 -125 -122 -14 0 -446 -272 -450 -284
-2 -6 0 -44 4 -84 9 -81 40 -159 95 -233 l35 -49 33 43 c17 23 35 50 39 60 5
14 11 16 27 7 27 -14 25 -36 -5 -72 -32 -38 -33 -62 -2 -53 75 23 180 111 175
147 -2 19 -16 26 -79 44 -116 33 -148 55 -149 102 -1 114 233 257 309 188 43
-39 20 -132 -48 -185 -45 -36 -75 -35 -87 2 -6 18 4 31 55 77 33 30 61 58 61
63 0 17 -63 4 -121 -26 -43 -22 -73 -46 -93 -74 -28 -40 -28 -44 -13 -61 9
-10 43 -26 74 -36 91 -29 129 -52 143 -87 l13 -31 29 56 c30 58 34 62 58 46
12 -8 12 -15 -3 -57 -9 -26 -17 -52 -17 -58 0 -13 68 83 75 106 7 20 31 25 52
11 9 -6 6 -21 -13 -60 -53 -111 -9 -75 58 47 31 57 74 29 45 -29 -23 -45 -6
-36 28 15 20 30 37 45 52 45 33 0 35 -13 8 -69 -14 -28 -25 -54 -25 -58 0 -17
53 46 69 82 23 53 46 72 66 55 13 -10 12 -17 -5 -51 -11 -21 -19 -39 -16 -39
2 0 21 23 42 50 36 48 65 62 79 40 4 -6 -3 -26 -15 -45 -29 -47 -19 -44 31 10
27 29 50 45 65 45 29 0 29 -1 4 -50 -23 -45 -28 -92 -7 -72 6 7 22 39 33 70
21 56 38 70 70 58 12 -5 12 -12 -6 -45 -11 -22 -20 -47 -20 -56 0 -28 25 5 69
93 39 77 40 81 20 87 -27 9 -19 27 17 38 33 11 46 26 39 44 -2 7 0 15 4 17 4
3 -24 38 -63 78 -40 40 -100 104 -134 142 -34 38 -64 67 -66 65 -1 -2 -58
-110 -126 -239 -68 -129 -125 -237 -127 -239 -10 -13 -10 17 2 126 13 113 12
129 -6 218 -10 54 -19 108 -19 121 0 13 -4 24 -8 24 -4 0 -40 -62 -80 -137
-78 -151 -121 -224 -122 -208 0 6 12 64 27 129 17 76 23 121 17 123 -7 2 2 50
23 125 18 67 30 124 27 127 -3 3 -58 -49 -122 -117z m678 -462 c0 -24 -26 -38
-42 -22 -16 16 -2 42 22 42 13 0 20 -7 20 -20z"/>
<path d="M1690 1266 c0 -9 11 -62 25 -118 14 -56 25 -103 25 -106 0 -5 -73 97
-133 185 -27 40 -40 43 -26 6 6 -16 33 -89 60 -163 27 -74 54 -136 59 -138 6
-2 10 -11 10 -21 0 -24 20 -41 47 -41 17 0 23 -6 23 -22 0 -33 -9 -42 -67 -72
-46 -23 -73 -49 -73 -72 0 -4 15 7 34 25 33 32 65 38 74 13 2 -7 -12 -28 -31
-47 -32 -32 -34 -36 -17 -45 25 -13 43 14 104 150 25 57 58 116 72 131 40 42
73 21 93 -57 13 -52 31 -59 87 -34 32 14 48 28 55 50 13 35 49 43 49 10 0 -13
7 -20 19 -20 52 0 37 -62 -21 -86 -37 -15 -47 -26 -70 -76 -18 -38 -23 -58
-14 -58 6 0 17 5 24 12 8 8 14 4 23 -16 15 -33 1 -50 -48 -61 -25 -5 -34 -2
-44 13 -12 19 -14 19 -37 4 -14 -9 -36 -16 -50 -17 -19 0 -28 -7 -32 -24 -3
-14 -11 -26 -17 -28 -19 -7 -63 43 -70 77 -7 39 -27 34 -31 -8 -5 -49 -40 -52
-118 -14 -58 29 -64 30 -64 13 0 -26 -34 -66 -48 -57 -7 4 -12 14 -12 23 0 13
-5 12 -25 -7 -22 -21 -29 -22 -46 -12 -16 10 -24 10 -42 -3 -35 -24 -55 -19
-65 17 l-8 32 -33 -42 c-38 -46 -51 -46 -51 1 l0 32 -33 -38 c-33 -39 -62 -43
-69 -10 -2 13 -10 10 -36 -12 -25 -21 -35 -25 -46 -16 -8 7 -12 21 -9 31 8 30
-13 24 -37 -10 -22 -31 -48 -38 -67 -19 -8 8 -18 6 -37 -6 -29 -20 -56 -14
-56 12 0 14 -5 12 -28 -10 -35 -34 -48 -34 -59 -1 -9 26 -9 25 -36 -25 -32
-57 -41 -64 -31 -24 l7 28 -24 -22 c-14 -12 -53 -35 -88 -51 l-63 -29 44 -16
c23 -8 61 -20 83 -26 56 -15 1106 -15 1177 0 176 37 316 173 364 354 8 28 14
91 14 141 l0 92 -65 16 c-35 9 -68 15 -72 14 -5 -2 -75 31 -157 72 l-148 75
-59 84 c-32 47 -59 77 -59 67z"/>
<path d="M1892 888 c-5 -7 -17 -31 -26 -53 l-16 -40 29 34 c29 33 46 71 31 71
-4 0 -12 -6 -18 -12z"/>
<path d="M1906 797 c-24 -19 -26 -25 -13 -30 14 -5 13 -12 -5 -67 -34 -100 -3
-94 47 10 16 33 35 60 42 60 18 0 16 15 -3 34 -21 22 -34 20 -68 -7z"/>
<path d="M2033 802 c-19 -3 -23 -10 -23 -39 0 -19 -9 -48 -21 -65 -21 -29 -21
-46 0 -34 18 12 82 129 74 135 -4 4 -18 5 -30 3z"/>
</g>
</svg>
